# xmcd
#
# Track frame offsets:
#	150
#	11897
#	28857
#	38485
#	49899
#	61011
#	72483
#	85744
#	96586
#	106050
#	120890
#	130676
#	141462
#	155006
#	166550
#	177761
#	190028
#	202170
#	213653
#	224289
#
# Disc length: 3138 seconds
#
# Revision: 0
# Processed by: cddbd v1.5.1PL0 Copyright (c) Steve Scherf et al.
# Submitted via: audiograbber 1.83.01
#
DISCID=1b0c4014
DTITLE=Diverse - 120 % Heroes Of Country
DYEAR=2004
DGENRE=Country
TTITLE0=Johnny Cash - Thanks A Lot
TTITLE1=Conny Francis - Love Is Strange
TTITLE2=Frankie Laine - Gunfight At The O K Corral
TTITLE3=Don Gibson - Sea Of Heartbreak
TTITLE4=Patsy Cline - A Stranger In My Arms
TTITLE5=Roy Rogers - Hi-Ho Silver
TTITLE6=Ferlin Husky - Country Music Is Here To Stay
TTITLE7=Gene Autry - Can't Take The Sands Of Texas From My Shoes
TTITLE8=Hank Locklin - Geisha Girl
TTITLE9=John Anderson - Country Comfort
TTITLE10=Buck Owens - I've Got A Tiger By The Tail
TTITLE11=Justin Tubb - Take A Letter Miss Gray
TTITLE12=Lynn Anderson - Keep Me In Mind
TTITLE13=Holly Dunn - Are You Ever Gonna Love Me
TTITLE14=Conway Twitty - Hello Darlin'
TTITLE15=Willie Nelson - Shelter Of Your Arms
TTITLE16=Hank Thompson - Wild Side Of Life
TTITLE17=Charlie Walker - Pick Me Up On Your Way Down
TTITLE18=Hank Locklin - Please Help Me I'm Falling
TTITLE19=Don Gibson - Oh, Lonesome Me
EXTD=
EXTT0=
EXTT1=
EXTT2=
EXTT3=
EXTT4=
EXTT5=
EXTT6=
EXTT7=
EXTT8=
EXTT9=
EXTT10=
EXTT11=
EXTT12=
EXTT13=
EXTT14=
EXTT15=
EXTT16=
EXTT17=
EXTT18=
EXTT19=
PLAYORDER=
